Coordinates
version=1
nRows=41
nColumns=38
inDegrees=no

Units are S.I. units (second, meters, Newtons, ...)
If the header above contains a line with 'inDegrees', this indicates whether rotational values are in degrees (yes) or radians (no).

endheader
time	pelvis_tilt	pelvis_list	pelvis_rotation	pelvis_tx	pelvis_ty	pelvis_tz	hip_flexion_r	hip_adduction_r	hip_rotation_r	knee_angle_r	ankle_angle_r	subtalar_angle_r	mtp_angle_r	hip_flexion_l	hip_adduction_l	hip_rotation_l	knee_angle_l	ankle_angle_l	subtalar_angle_l	mtp_angle_l	lumbar_extension	lumbar_bending	lumbar_rotation	arm_flex_r	arm_add_r	arm_rot_r	elbow_flex_r	pro_sup_r	wrist_flex_r	wrist_dev_r	arm_flex_l	arm_add_l	arm_rot_l	elbow_flex_l	pro_sup_l	wrist_flex_l	wrist_dev_l
0	0.357306	1.41342	-1.93822	1.06269	1.22794	0.965167	0.354303	-0.134568	-0.056709	1.18174	-0.0791045	0	0	-0.101225	0.08264	-0.183161	0.219976	0.0802824	0	0	-0.248737	-0.0921585	-0.13124	-0.214691	-0.0309888	-0.626802	0.291783	1.20249	0	0	-0.103229	-0.415227	0.798633	0.673428	0.521954	0	0
0.01	0.343518	1.41458	-1.91793	1.06377	1.22047	0.965212	0.364449	-0.133802	-0.0654007	1.15012	-0.068293	0	0	-0.113935	0.0813481	-0.174473	0.211495	0.081594	0	0	-0.25094	-0.0881512	-0.138451	-0.208817	-0.0311455	-0.620228	0.291388	1.19792	0	0	-0.0967298	-0.418174	0.798511	0.678705	0.532068	0	0
0.02	0.32541	1.41501	-1.89438	1.06474	1.21273	0.965269	0.371297	-0.132466	-0.0740323	1.11459	-0.0584541	0	0	-0.128306	0.07954	-0.167361	0.202499	0.0837194	0	0	-0.254412	-0.0836039	-0.144228	-0.20335	-0.0314808	-0.614119	0.291936	1.1924	0	0	-0.0897288	-0.419197	0.797041	0.680701	0.544701	0	0
0.03	0.30676	1.41529	-1.87151	1.06555	1.20491	0.965239	0.376607	-0.130829	-0.0824635	1.07625	-0.0498262	0	0	-0.142994	0.0776562	-0.160924	0.193464	0.0864913	0	0	-0.257913	-0.0790726	-0.14859	-0.197646	-0.0321393	-0.608132	0.291893	1.18763	0	0	-0.082401	-0.419345	0.794857	0.681324	0.556865	0	0
0.04	0.288666	1.41567	-1.85012	1.06624	1.19706	0.965071	0.380909	-0.12925	-0.0910806	1.03561	-0.0410908	0	0	-0.157529	0.0758228	-0.155066	0.184526	0.0895455	0	0	-0.261173	-0.0746679	-0.151675	-0.191996	-0.0329637	-0.602375	0.291809	1.18295	0	0	-0.0748636	-0.419576	0.792773	0.682971	0.569692	0	0
0.05	0.271653	1.4162	-1.8301	1.06691	1.18922	0.964774	0.38431	-0.127822	-0.100529	0.992991	-0.0328993	0	0	-0.171678	0.074144	-0.149101	0.17583	0.093252	0	0	-0.264188	-0.0702558	-0.154028	-0.186564	-0.0338756	-0.596532	0.291938	1.17753	0	0	-0.0661378	-0.41945	0.792977	0.68403	0.582596	0	0
0.06	0.255432	1.41694	-1.81171	1.0675	1.18135	0.964355	0.387106	-0.126495	-0.110592	0.948934	-0.0253851	0	0	-0.185451	0.0723885	-0.144052	0.167575	0.097894	0	0	-0.266759	-0.0658733	-0.155074	-0.181861	-0.0346788	-0.591488	0.293361	1.1715	0	0	-0.0562774	-0.418739	0.795738	0.683899	0.594707	0	0
0.07	0.239944	1.41802	-1.79528	1.06794	1.17341	0.963784	0.389653	-0.125169	-0.12099	0.904146	-0.0186409	0	0	-0.19852	0.0704988	-0.140888	0.160242	0.10349	0	0	-0.2687	-0.0616624	-0.154243	-0.178229	-0.0353384	-0.586442	0.296298	1.16606	0	0	-0.0454837	-0.4175	0.800488	0.682435	0.602694	0	0
0.08	0.225437	1.41955	-1.77985	1.06826	1.16534	0.963064	0.391731	-0.124086	-0.132859	0.858502	-0.0127533	0	0	-0.21063	0.0683443	-0.138454	0.154011	0.109856	0	0	-0.269776	-0.0577077	-0.152981	-0.175054	-0.0357107	-0.581619	0.299068	1.15994	0	0	-0.0344719	-0.416356	0.806672	0.68074	0.605838	0	0
0.09	0.212987	1.42139	-1.76608	1.06856	1.15722	0.962228	0.393457	-0.123692	-0.146643	0.81232	-0.00755977	0	0	-0.221889	0.0662485	-0.136075	0.148449	0.116332	0	0	-0.270337	-0.0539877	-0.151974	-0.171579	-0.0358752	-0.577469	0.30075	1.15397	0	0	-0.0229105	-0.415201	0.814794	0.678873	0.606878	0	0
0.1	0.202328	1.42381	-1.75396	1.06879	1.14902	0.961252	0.395298	-0.123687	-0.162007	0.766212	-0.00264546	0	0	-0.231473	0.0640119	-0.134737	0.144841	0.123636	0	0	-0.270015	-0.0504343	-0.151529	-0.16748	-0.035819	-0.575261	0.30113	1.15045	0	0	-0.0118994	-0.41363	0.82211	0.67671	0.607414	0	0
0.11	0.192233	1.42641	-1.74253	1.06891	1.14073	0.960161	0.39704	-0.123471	-0.177839	0.721017	0.00271567	0	0	-0.240244	0.0616004	-0.134232	0.142621	0.13143	0	0	-0.269518	-0.0470101	-0.150897	-0.16411	-0.0352112	-0.573321	0.303111	1.14762	0	0	-0.00122167	-0.411771	0.828211	0.674242	0.607057	0	0
0.12	0.176575	1.42842	-1.72544	1.06893	1.13227	0.959073	0.396943	-0.12224	-0.195039	0.675673	0.00789744	0	0	-0.249939	0.058393	-0.1331	0.140374	0.139088	0	0	-0.269433	-0.0430135	-0.150432	-0.161022	-0.0343539	-0.570393	0.305611	1.14413	0	0	0.00938238	-0.409471	0.83475	0.671049	0.607157	0	0
0.13	0.158428	1.43025	-1.70563	1.06886	1.12362	0.95791	0.39609	-0.120332	-0.212875	0.631258	0.0132785	0	0	-0.259851	0.0548507	-0.131803	0.1381	0.146348	0	0	-0.269362	-0.0387301	-0.150399	-0.158238	-0.0332776	-0.566561	0.308502	1.14019	0	0	0.0194007	-0.406869	0.840701	0.667322	0.607675	0	0
0.14	0.13773	1.43197	-1.68305	1.06871	1.11482	0.956672	0.394699	-0.117672	-0.23085	0.587957	0.0185806	0	0	-0.269738	0.0509024	-0.130089	0.136162	0.15349	0	0	-0.269436	-0.0340369	-0.150566	-0.155815	-0.0320479	-0.562545	0.312108	1.13577	0	0	0.0289014	-0.404106	0.845803	0.663672	0.608531	0	0
0.15	0.116053	1.43373	-1.65985	1.06843	1.10585	0.955338	0.393296	-0.114243	-0.248011	0.546215	0.0237556	0	0	-0.279286	0.0464292	-0.129501	0.135829	0.16193	0	0	-0.269113	-0.0294918	-0.150624	-0.153572	-0.0306659	-0.559165	0.315929	1.13269	0	0	0.0374855	-0.401277	0.84955	0.660351	0.609283	0	0
0.16	0.0888451	1.43518	-1.63116	1.06806	1.09668	0.953946	0.390934	-0.109495	-0.264696	0.505281	0.0285978	0	0	-0.289161	0.0410668	-0.129181	0.136008	0.170901	0	0	-0.268586	-0.0243037	-0.15085	-0.152083	-0.0294946	-0.55529	0.320797	1.12931	0	0	0.045342	-0.397987	0.852755	0.656471	0.610295	0	0
0.17	0.0586272	1.43667	-1.59953	1.06758	1.08735	0.952466	0.388174	-0.103718	-0.279972	0.465358	0.0335008	0	0	-0.29833	0.0351368	-0.129385	0.137548	0.180294	0	0	-0.267791	-0.018807	-0.150905	-0.150914	-0.0285044	-0.551548	0.325532	1.1256	0	0	0.0525104	-0.394894	0.855429	0.653468	0.61194	0	0
0.18	0.027948	1.43825	-1.56688	1.06707	1.07792	0.950898	0.385032	-0.0975339	-0.293414	0.426469	0.0386449	0	0	-0.306294	0.0289669	-0.129394	0.140817	0.189713	0	0	-0.26686	-0.0132173	-0.15146	-0.149646	-0.0276828	-0.54835	0.329612	1.12155	0	0	0.0593266	-0.392229	0.857967	0.651394	0.614034	0	0
0.19	-0.00330188	1.44	-1.53346	1.0665	1.06841	0.949249	0.381509	-0.0907058	-0.303887	0.388279	0.0435364	0	0	-0.313184	0.0225222	-0.129701	0.145646	0.199579	0	0	-0.265583	-0.00760973	-0.152426	-0.148508	-0.0270744	-0.545787	0.333702	1.11731	0	0	0.0655884	-0.390007	0.86027	0.65005	0.615974	0	0
0.2	-0.0372133	1.44212	-1.49786	1.06577	1.05873	0.947514	0.377829	-0.0824715	-0.309746	0.350585	0.0473655	0	0	-0.318978	0.0155636	-0.131311	0.152078	0.2101	0	0	-0.263409	-0.00208399	-0.153064	-0.147545	-0.0267332	-0.543065	0.337119	1.112	0	0	0.0709797	-0.387814	0.861693	0.648752	0.617889	0	0
0.21	-0.0790279	1.44386	-1.45423	1.0649	1.04888	0.945793	0.371814	-0.0717616	-0.309703	0.310691	0.0484916	0	0	-0.324037	0.00707653	-0.134432	0.160571	0.221162	0	0	-0.261118	0.00425922	-0.153763	-0.147507	-0.0267227	-0.538059	0.34126	1.10362	0	0	0.0757066	-0.385219	0.861806	0.647002	0.62193	0	0
0.22	-0.112419	1.44635	-1.4186	1.06397	1.03889	0.943989	0.366661	-0.0627076	-0.306713	0.273871	0.0497488	0	0	-0.327705	-0.000234377	-0.136598	0.169947	0.231303	0	0	-0.257724	0.00902316	-0.155704	-0.147125	-0.0267509	-0.533105	0.343486	1.09351	0	0	0.078925	-0.383166	0.859655	0.645798	0.627018	0	0
0.23	-0.142592	1.44892	-1.38553	1.063	1.02878	0.942184	0.361006	-0.0545036	-0.30104	0.239185	0.0501955	0	0	-0.330412	-0.00772024	-0.138775	0.181619	0.241561	0	0	-0.254052	0.0130062	-0.158713	-0.14598	-0.0267182	-0.530388	0.343271	1.08735	0	0	0.0814643	-0.382008	0.857753	0.645944	0.631494	0	0
0.24	-0.170835	1.45101	-1.35368	1.06202	1.01854	0.940464	0.353864	-0.0468764	-0.293254	0.206285	0.04907	0	0	-0.33321	-0.015325	-0.140355	0.194046	0.25084	0	0	-0.250839	0.0166802	-0.162648	-0.14436	-0.026799	-0.527978	0.341163	1.08335	0	0	0.0836492	-0.381088	0.855721	0.646138	0.637491	0	0
0.25	-0.196816	1.45237	-1.32364	1.061	1.00812	0.938889	0.345265	-0.0398072	-0.28449	0.176274	0.0464292	0	0	-0.336449	-0.0230076	-0.141985	0.207035	0.258886	0	0	-0.248259	0.0202332	-0.167225	-0.1431	-0.0268521	-0.526478	0.338906	1.08077	0	0	0.0852618	-0.380306	0.853433	0.645883	0.642123	0	0
0.26	-0.219034	1.45285	-1.2973	1.05991	0.997477	0.93751	0.335911	-0.033557	-0.276703	0.15139	0.0431366	0	0	-0.340478	-0.0308509	-0.143817	0.220995	0.26551	0	0	-0.246287	0.0233981	-0.171713	-0.142428	-0.0267734	-0.526067	0.336342	1.07879	0	0	0.0864865	-0.379668	0.851576	0.64531	0.644371	0	0
0.27	-0.232158	1.45302	-1.28031	1.05871	0.986613	0.936303	0.32786	-0.0292885	-0.273065	0.13536	0.0416422	0	0	-0.345114	-0.0377558	-0.144539	0.234884	0.269142	0	0	-0.244642	0.0253902	-0.175815	-0.142346	-0.0265043	-0.525608	0.333217	1.07773	0	0	0.087718	-0.37912	0.851054	0.644274	0.646642	0	0
0.28	-0.240396	1.4527	-1.26882	1.05734	0.975494	0.935288	0.320603	-0.0257831	-0.272485	0.12752	0.041551	0	0	-0.350206	-0.0446345	-0.14556	0.249832	0.271276	0	0	-0.243324	0.0268252	-0.179326	-0.143123	-0.0260483	-0.525335	0.330442	1.0769	0	0	0.088251	-0.378707	0.850323	0.643119	0.648809	0	0
0.29	-0.251038	1.45187	-1.25507	1.05588	0.964134	0.934471	0.314202	-0.0222048	-0.275259	0.127798	0.0414503	0	0	-0.35481	-0.0524204	-0.146775	0.266777	0.272343	0	0	-0.24198	0.0288497	-0.182592	-0.144385	-0.0257104	-0.525296	0.327349	1.07598	0	0	0.0878363	-0.378246	0.848887	0.64195	0.650517	0	0
0.3	-0.267672	1.45058	-1.23555	1.05434	0.952521	0.933843	0.309257	-0.0182178	-0.280805	0.136962	0.0394677	0	0	-0.358696	-0.0613318	-0.147356	0.285724	0.272172	0	0	-0.240262	0.032027	-0.185313	-0.146393	-0.0257138	-0.5256	0.324079	1.07477	0	0	0.086394	-0.377218	0.846221	0.6406	0.652271	0	0
0.31	-0.287825	1.44932	-1.21247	1.05277	0.940638	0.93332	0.304837	-0.0139752	-0.285879	0.151481	0.0344886	0	0	-0.361154	-0.0708765	-0.146463	0.307101	0.27028	0	0	-0.237442	0.0358652	-0.188124	-0.149418	-0.026004	-0.526138	0.321017	1.07415	0	0	0.083751	-0.375775	0.84257	0.639552	0.654766	0	0
0.32	-0.309586	1.4485	-1.1873	1.0512	0.928477	0.93284	0.299908	-0.00954254	-0.290002	0.166819	0.0292872	0	0	-0.361613	-0.0806587	-0.143851	0.330941	0.266862	0	0	-0.233137	0.0401254	-0.191397	-0.15396	-0.0264384	-0.52688	0.319192	1.07429	0	0	0.0795907	-0.374022	0.837564	0.638637	0.657383	0	0
0.33	-0.337332	1.44825	-1.1559	1.04959	0.916013	0.932377	0.294242	-0.0040657	-0.293697	0.179682	0.0269078	0	0	-0.35952	-0.0912158	-0.140382	0.357679	0.261908	0	0	-0.227246	0.0452128	-0.194966	-0.160117	-0.0270491	-0.52847	0.319034	1.07507	0	0	0.0734974	-0.372273	0.830751	0.638688	0.660021	0	0
0.34	-0.373389	1.44789	-1.11624	1.0479	0.903456	0.93203	0.28752	0.00303686	-0.296734	0.187581	0.0226358	0	0	-0.354655	-0.103052	-0.137052	0.388259	0.254943	0	0	-0.220438	0.05151	-0.198364	-0.166773	-0.0280219	-0.530709	0.319349	1.07676	0	0	0.0665316	-0.37004	0.822837	0.638924	0.66344	0	0
0.35	-0.421302	1.44689	-1.06581	1.04603	0.891008	0.931903	0.280898	0.0119	-0.298564	0.192131	0.00988324	0	0	-0.346714	-0.116625	-0.135159	0.423239	0.245307	0	0	-0.2136	0.0595413	-0.200116	-0.172913	-0.0294309	-0.533636	0.319211	1.07979	0	0	0.059598	-0.367065	0.813694	0.63868	0.667439	0	0
0.36	-0.486943	1.44494	-0.999972	1.04388	0.878819	0.932126	0.276809	0.022324	-0.30012	0.199201	-0.00957464	0	0	-0.334902	-0.132674	-0.135661	0.463737	0.232185	0	0	-0.20696	0.069937	-0.199236	-0.177881	-0.031664	-0.536823	0.318393	1.08428	0	0	0.0528329	-0.362725	0.802051	0.637583	0.673597	0	0
0.37	-0.561217	1.44157	-0.928534	1.04149	0.866902	0.932805	0.276262	0.0326973	-0.303314	0.214564	-0.0235743	0	0	-0.32006	-0.149901	-0.138618	0.508953	0.214111	0	0	-0.2015	0.0820279	-0.195144	-0.181696	-0.0349564	-0.539462	0.317098	1.08886	0	0	0.0464262	-0.35708	0.788386	0.635645	0.680756	0	0
0.38	-0.629648	1.43731	-0.865208	1.03901	0.855058	0.933863	0.278492	0.0411276	-0.310438	0.239001	-0.0250644	0	0	-0.302881	-0.166319	-0.142375	0.558051	0.189844	0	0	-0.19718	0.0942195	-0.188996	-0.184906	-0.0390168	-0.541961	0.314998	1.09286	0	0	0.0397769	-0.350837	0.773607	0.634059	0.688004	0	0
0.39	-0.681356	1.43385	-0.819386	1.03667	0.84321	0.935101	0.281662	0.0458547	-0.321133	0.267986	-0.0188328	0	0	-0.282784	-0.179545	-0.144694	0.61009	0.158574	0	0	-0.193	0.104374	-0.182889	-0.188014	-0.0431803	-0.545916	0.312297	1.09584	0	0	0.0321303	-0.344929	0.758851	0.634047	0.694494	0	0
0.4	-0.719093	1.43203	-0.786974	1.03453	0.831428	0.936329	0.283529	0.0478143	-0.331401	0.294409	-0.0135971	0	0	-0.258664	-0.189287	-0.143113	0.665177	0.121615	0	0	-0.188369	0.112101	-0.178079	-0.191536	-0.0472415	-0.550968	0.309585	1.09795	0	0	0.0235706	-0.340316	0.74559	0.636834	0.699335	0	0
